HIERARCHY
ROOT Hips
{
	OFFSET 0.000000 0.000000 0.000000 
	CHANNELS 6 Xposition Yposition Zposition Yrotation Zrotation Xrotation 
	JOINT Lumbar
	{
		OFFSET 0.000000 0.000000 0.000000 
		CHANNELS 3 Zrotation Xrotation Yrotation
		JOINT Neck
		{
			OFFSET 0.000000 0.445665 0.000000 
			CHANNELS 3 Zrotation Xrotation Yrotation
			End Site
			{
				OFFSET 0.000000 0.227535 0.000000 
			}
		}
		JOINT RightShoulder
		{
			OFFSET 0.019635 0.377685 0.194865 
			CHANNELS 3 Zrotation Xrotation Yrotation
			JOINT RightElbow
			{
				OFFSET 0.000000 -0.243375 0.000000 
				CHANNELS 2 Zrotation Yrotation
				JOINT RightWrist
				{
					OFFSET 0.000000 -0.264825 0.000000 
					CHANNELS 2 Zrotation Xrotation
					End Site
					{
						OFFSET 0.006600 -0.176220 0.000990 
					}
				}
			}
		}
		JOINT LeftShoulder
		{
			OFFSET 0.019635 0.377685 -0.194865 
			CHANNELS 3 Zrotation Xrotation Yrotation
			JOINT LeftElbow
			{
				OFFSET 0.000000 -0.243375 0.000000 
				CHANNELS 2 Zrotation Yrotation
				JOINT LeftWrist
				{
					OFFSET 0.000000 -0.264825 0.000000 
					CHANNELS 2 Zrotation Xrotation
					End Site
					{
						OFFSET 0.006600 -0.176220 -0.000990 
					}
				}
			}
		}
	}
	JOINT RightHip
	{
		OFFSET 0.052140 -0.069960 0.075570 
		CHANNELS 3 Zrotation Xrotation Yrotation
		JOINT RightKnee
		{
			OFFSET 0.000000 -0.402270 0.000000 
			CHANNELS 1 Zrotation
			JOINT RightAnkle
			{
				OFFSET 0.000000 -0.404085 0.000000 
				CHANNELS 3 Zrotation Xrotation Yrotation
				End Site
				{
					OFFSET 0.204105 -0.089430 0.008415 
				}
			}
		}
	}
	JOINT LeftHip
	{
		OFFSET 0.052140 -0.069960 -0.075570 
		CHANNELS 3 Zrotation Xrotation Yrotation
		JOINT LeftKnee
		{
			OFFSET 0.000000 -0.402270 0.000000 
			CHANNELS 1 Zrotation
			JOINT LeftAnkle
			{
				OFFSET 0.000000 -0.404085 0.000000 
				CHANNELS 3 Zrotation Xrotation Yrotation
				End Site
				{
					OFFSET 0.204105 -0.089430 -0.008415 
				}
			}
		}
	}
}
MOTION
Frames: 17
Frame Time: 0.02
0 0.95579 -0 218.64174 0 2.76327 8.89758 -0.12031 -0.58188 -44.29442 2.16438 2.5494 35.5311 -13.76283 -1.82936 12.72713 81.43521 -0.06325 0.46326 37.01013 3.8718 3.88172 7.07339 -74.04463 -5.30028 -1.41034 4.14198 2.59287 13.55366 -22.83947 11.45524 -10.23587 -15.31612 3.55825 -4.27728 -11.48758 -18.31173 9.00295 7.66767 9.8124
-0.00104 0.95571 0.00074 219.11988 0 2.78407 8.97439 -0.1794 -0.60272 -43.88491 2.23143 2.71212 35.05195 -13.87026 -1.90175 12.64955 81.44829 -0.07383 0.53431 36.63799 3.7604 2.79186 7.28429 -74.10925 -5.1406 -1.33737 4.01777 2.54368 13.11469 -22.8139 11.5205 -10.28345 -15.33591 3.53323 -4.3213 -12.0096 -18.29749 9.00291 7.68991 9.82809
-0.00208 0.95563 0.00148 219.59547 0 2.80603 9.05073 -0.23947 -0.62334 -43.47542 2.29786 2.87257 34.57358 -13.97579 -1.97225 12.57297 81.46121 -0.08456 0.60463 36.26549 3.65096 1.70629 7.49398 -74.17345 -4.98282 -1.26471 3.89439 2.49388 12.67888 -22.78974 11.5866 -10.33189 -15.35589 3.50813 -4.36597 -12.5275 -18.28338 9.0032 7.71154 9.84246
-0.00312 0.95554 0.00221 220.06576 0 2.83336 9.12495 -0.30454 -0.64318 -43.06106 2.36342 3.02603 34.09299 -14.07582 -2.03597 12.49943 81.47386 -0.09525 0.67355 35.88676 3.54676 0.62579 7.7009 -74.23663 -4.83114 -1.19262 3.77355 2.44051 12.25213 -22.77159 11.65726 -10.38479 -15.37684 3.48315 -4.41481 -13.03558 -18.27043 9.00437 7.73155 9.85359
-0.00414 0.95551 0.00297 220.56434 0 2.8329 9.20922 -0.34377 -0.66708 -42.6713 2.43475 3.2171 33.62336 -14.20628 -2.13562 12.40955 81.48822 -0.10526 0.7509 35.53963 3.41299 -0.48323 7.92255 -74.30525 -4.64721 -1.11754 3.63982 2.40528 11.77822 -22.7224 11.70446 -10.41474 -15.39268 3.45836 -4.44297 -13.59752 -18.25226 9.0004 7.76088 9.88415
-0.00522 0.95536 0.00368 221.00244 0 2.89076 9.27297 -0.43718 -0.68241 -42.23072 2.493 3.32802 33.13158 -14.27136 -2.15921 12.35451 81.49875 -0.11731 0.80968 35.12695 3.34309 -1.52967 8.11278 -74.36228 -4.53166 -1.04886 3.53307 2.33224 11.40395 -22.73837 11.80076 -10.49273 -15.41927 3.43263 -4.51389 -14.04377 -18.24453 9.00762 7.76995 9.87204
-0.00651 0.95485 0.00425 221.28109 0 3.12066 9.27289 -0.69183 -0.67309 -41.62593 2.52211 3.21603 32.55808 -14.15855 -1.96638 12.39581 81.50007 -0.13074 0.82271 34.50752 3.44436 -2.43727 8.21869 -74.38779 -4.60888 -0.99635 3.50404 2.14467 11.30895 -22.94569 12.04437 -10.71439 -15.4777 3.40837 -4.71706 -14.1817 -18.27199 9.04438 7.72588 9.75047
-0.00787 0.95423 0.00477 221.49768 0 3.40747 9.2535 -0.99914 -0.65517 -40.9739 2.53677 3.02329 31.96561 -13.97916 -1.69834 12.47217 81.49709 -0.14737 0.8161 33.82638 3.61122 -3.2772 8.29257 -74.40161 -4.7545 -0.95042 3.50158 1.92074 11.31339 -23.21675 12.33557 -10.98265 -15.5466 3.38251 -4.9609 -14.20109 -18.30906 9.09277 7.66084 9.58426
-0.00921 0.95367 0.00531 221.73796 0 3.6616 9.24749 -1.27536 -0.64194 -40.35778 2.55348 2.86834 31.39417 -13.82826 -1.46783 12.5326 81.49542 -0.16486 0.81481 33.1889 3.75158 -4.12618 8.3796 -74.4204 -4.86636 -0.90254 3.48491 1.7196 11.26987 -23.45175 12.59785 -11.22285 -15.60942 3.35454 -5.17733 -14.26743 -18.33737 9.13672 7.60347 9.4327
-0.01052 0.95304 0.00587 221.99686 0 3.9452 9.22171 -1.58253 -0.62588 -39.67932 2.58916 2.70873 30.76943 -13.68459 -1.22069 12.59351 81.49723 -0.17112 0.8284 32.48388 3.87787 -5.06353 8.47243 -74.44033 -4.9895 -0.8507 3.47749 1.49145 11.23917 -23.71742 12.89138 -11.49256 -15.67795 3.33804 -5.43195 -14.36234 -18.38338 9.17692 7.55379 9.30446
-0.0119 0.95255 0.00638 222.2027 0 4.18005 9.23291 -1.83681 -0.61311 -39.12135 2.582 2.53971 30.25248 -13.51036 -0.99349 12.66114 81.48983 -0.20336 0.80676 31.90702 4.04916 -5.80459 8.54571 -74.45546 -5.10541 -0.80816 3.45683 1.31168 11.204 -23.93341 13.13052 -11.71126 -15.7369 3.29788 -5.61602 -14.37035 -18.39586 9.2279 7.48333 9.11767
-0.01348 0.95248 0.00678 222.27361 0 4.27439 9.34756 -1.9403 -0.61632 -38.89194 2.45913 2.36372 30.02777 -13.26502 -0.81142 12.74436 81.46606 -0.2899 0.68952 31.68073 4.32794 -5.98708 8.57164 -74.4572 -5.18421 -0.79436 3.3956 1.26745 11.14399 -24.00487 13.21321 -11.7831 -15.76848 3.18754 -5.60124 -14.16131 -18.30423 9.304 7.35893 8.775
-0.01513 0.95257 0.00713 222.29406 0 4.31642 9.50071 -1.98738 -0.62227 -38.78866 2.29369 2.18101 29.91493 -12.9916 -0.65664 12.83233 81.43166 -0.40487 0.53843 31.5891 4.65008 -5.98006 8.57921 -74.45505 -5.25339 -0.78902 3.3197 1.27431 11.07395 -24.02278 13.23868 -11.80116 -15.78976 3.05442 -5.51315 -13.87022 -18.18025 9.39084 7.21474 8.37604
-0.01674 0.95259 0.00751 222.33986 0 4.37694 9.63843 -2.05479 -0.62377 -38.63755 2.14858 2.00213 29.75634 -12.73319 -0.50876 12.91419 81.39692 -0.51869 0.40446 31.44773 4.9526 -6.08219 8.59596 -74.45668 -5.32729 -0.77651 3.24886 1.26251 11.00058 -24.05952 13.28665 -11.84006 -15.81469 2.93517 -5.45451 -13.62049 -18.07705 9.474 7.08065 8.00606
-0.01837 0.95259 0.0079 222.37284 0 4.46099 9.76673 -2.14586 -0.63835 -38.44346 1.99946 1.81793 29.57201 -12.46363 -0.27945 13.01301 81.38396 -0.58594 0.26107 31.25531 5.25621 -6.08683 8.60807 -74.44952 -5.40233 -0.77748 3.18558 1.23078 10.9635 -24.1209 13.35045 -11.89503 -15.84435 2.80103 -5.41282 -13.34878 -17.94842 9.55267 6.94088 7.61963
-0.01998 0.95267 0.00824 222.42187 0 4.48381 9.92407 -2.17427 -0.62663 -38.37102 1.84795 1.64328 29.4726 -12.21067 -0.22381 13.07835 81.32304 -0.75312 0.13128 31.20264 5.56805 -6.24779 8.62591 -74.45974 -5.47153 -0.75329 3.10289 1.25242 10.84778 -24.11846 13.36783 -11.9041 -15.86157 2.69252 -5.31885 -13.10572 -17.86508 9.64289 6.80887 7.25534
-0.02153 0.953 0.00847 222.52316 0 4.34183 10.15119 -2.03691 -0.53999 -38.58861 1.70748 1.50599 29.54147 -12.01846 -0.66777 13.04336 81.13475 -1.22173 0.0297 31.49609 5.88205 -6.90898 8.66424 -74.52037 -5.52923 -0.6489 2.96865 1.41587 10.51161 -23.94319 13.26398 -11.79095 -15.84693 2.66051 -5.08982 -12.95547 -17.91401 9.76398 6.70037 6.96081
